/* XPM */
static char *exit[] = {
/* columns rows colors chars-per-pixel */
"16 16 155 2 ",
"   c #3B0000",
".  c #232223",
"X  c #400400",
"o  c #420A01",
"O  c #500000",
"+  c #510000",
"@  c #540000",
"#  c #550000",
"$  c #521300",
"%  c #581D00",
"&  c #5D140B",
"*  c #5F1D0B",
"=  c #5F2115",
"-  c #5C2B12",
";  c #5F241D",
":  c #632117",
">  c #62291F",
",  c #692E1A",
"<  c #5B2721",
"1  c #582722",
"2  c #5C2B23",
"3  c #5C332E",
"4  c #5B3532",
"5  c #523539",
"6  c #5C3B3D",
"7  c #622A24",
"8  c #682823",
"9  c #6C3525",
"0  c #65362F",
"q  c #67362F",
"w  c #643630",
"e  c #6A3831",
"r  c #6B3932",
"t  c #6B3B35",
"y  c #663E39",
"u  c #6D3B3A",
"i  c #6A3D39",
"p  c #6B3C3B",
"a  c #753E36",
"s  c #6C413B",
"d  c #6C423D",
"f  c #79443E",
"g  c #573D40",
"h  c #6C3F40",
"j  c #494849",
"k  c #595757",
"l  c #5F5D5D",
"z  c #604142",
"x  c #6B4344",
"c  c #6F4545",
"v  c #704445",
"b  c #7A4640",
"n  c #794841",
"m  c #704848",
"M  c #704849",
"N  c #735050",
"B  c #5A5469",
"V  c #5A566A",
"C  c #5D5E76",
"Z  c #5E5F77",
"A  c #625D72",
"S  c #635D73",
"D  c #58647C",
"F  c #5A657D",
"G  c #676565",
"H  c #6D6262",
"J  c #796A69",
"K  c #7B7C7C",
"L  c #82463F",
"P  c #844A44",
"I  c #854B45",
"U  c #854C45",
"Y  c #874E4C",
"T  c #8C5A59",
"R  c #826A6B",
"E  c #877C7B",
"W  c #8B7F7E",
"Q  c #5A6885",
"!  c #5A6986",
"~  c #5D6A86",
"^  c #646D87",
"/  c #606E8A",
"(  c #67728B",
")  c #66748F",
"_  c #6A748D",
"`  c #6A758D",
"'  c #6B758D",
"]  c #6C778D",
"[  c #6C778E",
"{  c #6B788F",
"}  c #677692",
"|  c #6A7892",
" . c #6D7A94",
".. c #6D7B94",
"X. c #6E7C95",
"o. c #677598",
"O. c #6B7999",
"+. c #6A799A",
"@. c #6A799B",
"#. c #6C7999",
"$. c #6D7C9C",
"%. c #6D7FA2",
"&. c #778297",
"*. c #72819F",
"=. c #798499",
"-. c #79859A",
";. c #6D80A2",
":. c #6D80A4",
">. c #6E80A4",
",. c #6E81A4",
"<. c #7284A2",
"1. c #7F88A0",
"2. c #7888A7",
"3. c #7C8AA4",
"4. c #7E8BA5",
"5. c #798AAA",
"6. c #7B8DAD",
"7. c #868383",
"8. c #858484",
"9. c #858686",
"0. c #888686",
"q. c #878888",
"w. c #898B8B",
"e. c #918283",
"r. c #968A8B",
"t. c #8D8F90",
"y. c #949697",
"u. c #989191",
"i. c #989799",
"p. c #989898",
"a. c #9E9D9D",
"s. c #838EA6",
"d. c #848EA5",
"f. c #858FA6",
"g. c #838FA9",
"h. c #8693AE",
"j. c #8B98B0",
"k. c #8A98B3",
"l. c #8C98B0",
"z. c #8C99B1",
"x. c #8C99B4",
"c. c #919BB2",
"v. c #909CB2",
"b. c #9BA6BE",
"n. c #A1A0A1",
"m. c #ACACAC",
"M. c #B0AFAF",
"N. c #B4B4B4",
"B. c #B6B6B6",
"V. c #B7B6B6",
"C. c #9DA8C0",
"Z. c #9DA9C1",
"A. c #C0C0C0",
"S. c #C1C3C3",
"D. c None",
/* pixels */
"D.D.D.D.D.D.D.D.D.D.D.D.D.D.D.D.",
"D.D.D.D.D.D.D.D.D.D.D.D.D.D.D.D.",
"D.D.D.D.D.D.g.h.h.g.D.D.D.D.D.D.",
"D.D.D.g.k.4.-.b.b.-.4.k.g.D.D.D.",
"{ x.3.=.C.c.) 2.2.) c.C.=.3.x.{ ",
"&.Z.v.} 6.<.~ $.$.~ <.6.} v.Z.&.",
"/ 5.*.B C S 5 6 z g A Z V *.5./ ",
"D | ( y - , q > + # 9 % 0 ( | D ",
"] l.d.i.W 8 4 k n.u.& i v f.l.] ",
"! >.+.N d ; l 9.j S.J * M +.:.! ",
"F .._ p e o q.M.p.A.V.$ e.^ X.F ",
"] j.f.c t X w.m.. N.a.3 r.1.z.] ",
"! :.@.h r   t.B.q.B.K 2 R o.,.! ",
"F  .` m s 1 G 7.0.8.H = u '  .F ",
"[ l.s.y.E : < # @ O 7 w x f.l.] ",
"Q ;.O.T n L f U I b P a Y #.%.Q "
};
